<?xml version="1.0"?>

<svg version="1.1" id="Layer_1" xmlns="http://www.w3.org/2000/svg" xmlns:xlink="http://www.w3.org/1999/xlink" x="0px" y="0px" viewBox="0 0 2000 2000" style="enable-background:new 0 0 2000 2000;" xml:space="preserve">

<circle fill="#FFFFFF" cx="1018.59" cy="1000.3" r="819.29"></circle>
<path fill="#D8232F" d="M746.76,585.65C746.56,585.58,746.37,585.52,746.76,585.65L746.76,585.65z"></path>
<path fill="#D8232F" d="M746.76,585.65c0.07,0.02,0.13,0.04,0.18,0.05C746.9,585.69,746.85,585.67,746.76,585.65z"></path>
<path fill="#D8232F" d="M746.94,585.7C747,585.72,746.99,585.71,746.94,585.7L746.94,585.7z"></path>
<path fill="#D8232F" d="M746.76,585.65C746.87,586.04,746.82,585.84,746.76,585.65L746.76,585.65z"></path>
<path fill="#D8232F" d="M746.76,585.65C746.71,585.45,746.65,585.25,746.76,585.65L746.76,585.65z"></path>
<path fill="#0D1B33" d="M1262.22,827.8c5.47-1.92,9.6,3.12,13.52,6.08c27.66,24.98,54.77,50.62,80.52,77.56&#xA;&#x9;c5.84,5.69,11.21,12.44,18.97,15.62c6.16,2.72,12.54-0.75,18.62-2.05c7.05-2.01,14.18,0.83,20.89,2.9&#xA;&#x9;c5.88,2.21,12.87,4.15,16.09,10.09c7.96,14.91,11.55,31.91,21.03,46.04c17.32,24.27,31.67,51.3,54.65,70.94&#xA;&#x9;c13.54,12.32,43.92,20.01,60.72,26.75c-4.74,2.69-23.84,3.01-29.13,2.61c-19.43-1.95-39.01-0.79-58.36,1.36&#xA;&#x9;c-29.12,3.54-57.47,15.65-79.01,35.74c-1.48,1.38-1.58,3.72-0.22,5.22c2.15,2.37,5.95,5.2,9.04,7.93c1.46,1.29,0.6,3.7-1.34,3.77&#xA;&#x9;c-31.86,1.18-66.73,0-98.19-2.65c-0.04-13.27,0.41-26.54-0.18-39.8c-0.83-21.5,3.87-43.32-0.95-64.56&#xA;&#x9;c-10.21-32.74-33.51-58.7-54.3-85.14c-6-7.74-12.08-17.57-9.08-27.76c4.74-17.2,7.98-34.79,13.13-51.89&#xA;&#x9;c-8.49-5.94-18.09-9.95-28-12.83C1237.98,842.03,1248.09,830.78,1262.22,827.8z"></path>
<path fill="#0D1B33" d="M745.63,900.81c5.69-4.86,13.88-3.06,20.18-0.51c24.25,10.54,46.77,24.46,69.78,37.34&#xA;&#x9;c19.39,11.02,38.84,21.92,58.15,33.09c24.15,13.31,46.95,29.64,73.55,37.89c12.91,4.4,26.73,7.42,40.38,4.96&#xA;&#x9;c13.17-2.03,24.82-8.9,36.45-14.95c9.36-4.86,17.79-11.85,28.27-14.24c12.74-3.46,26.2-2.88,39.01,0.08&#xA;&#x9;c-19.03,33.19-42.31,63.73-61.88,96.61c-11.67,20.55-35.91,29.22-57.99,32.95c-36.17,3.77-73.57-0.49-107.29-14.47&#xA;&#x9;c-22.92-11.43-36.49-34.43-50.13-55.03c-13.45-20.79-25.29-43.6-28.61-68.43c-2.09-15.89,4.34-33.55-4.96-47.96&#xA;&#x9;c-6.24-10.13-19.19-10.62-29.68-12.42c-16.17,21.46-33.45,42.19-53.65,59.96c-5.05,4.23-9.58,9.52-15.78,12.04&#xA;&#x9;c-6.38-0.1-12.48-3.12-18.9-2.45c-3.24,5.19-5.37,10.96-8.33,16.31c-5.25,9.81-12.95,17.99-20.75,25.83&#xA;&#x9;c-14.12,13.92-29.58,26.87-47.56,35.56c-28.69,14.1-60.14,22.96-92.07,25.08c-11.85,0.12-23.73,0.67-35.54-0.55&#xA;&#x9;c1.64-1.11,0.92-1.38,2.65-2.35c19.31-3.91,40.94-11.34,56.48-23.82c13.76-11.21,27.9-22.07,40.5-34.61&#xA;&#x9;c10.21-10.8,19.01-22.84,28.67-34.1c15.18-19.23,31.14-39.78,54.36-49.54c10.03,8.19,20.47,16.05,32.48,21.09&#xA;&#x9;c11.02-12.7,21.26-26.08,32.42-38.66C732.86,917.62,737.58,907.78,745.63,900.81z"></path>
<path fill="#D8232F" d="M1019.29,1827.57c-111.72,0-220.1-21.88-322.13-65.04c-98.55-41.68-187.05-101.35-263.05-177.35&#xA;&#x9;c-76-76-135.67-164.5-177.35-263.05c-43.16-102.03-65.04-210.41-65.04-322.13s21.88-220.1,65.04-322.13&#xA;&#x9;c41.68-98.55,101.35-187.05,177.35-263.05c76-76,164.5-135.67,263.05-177.35c102.03-43.16,210.41-65.04,322.13-65.04&#xA;&#x9;s220.1,21.88,322.13,65.04c98.55,41.68,187.05,101.35,263.05,177.35c76,76,135.67,164.5,177.35,263.05&#xA;&#x9;c43.16,102.03,65.04,210.41,65.04,322.13s-21.88,220.1-65.04,322.13c-41.68,98.55-101.35,187.05-177.35,263.05&#xA;&#x9;c-76,76-164.5,135.67-263.05,177.35C1239.39,1805.68,1131.01,1827.57,1019.29,1827.57z M1019.29,190.67&#xA;&#x9;c-446.27,0-809.33,363.06-809.33,809.33s363.06,809.33,809.33,809.33s809.33-363.07,809.33-809.33S1465.55,190.67,1019.29,190.67z"></path>
<path fill="#0D1B33" d="M1019.65,1788.09c-106.57,0-209.96-20.86-307.29-61.98c-94.01-39.73-178.43-96.59-250.93-169.02&#xA;&#x9;c-72.5-72.43-129.42-156.78-169.18-250.7c-41.17-97.24-62.04-200.53-62.04-307s20.87-209.76,62.04-307&#xA;&#x9;c39.76-93.92,96.68-178.27,169.18-250.7c72.5-72.43,156.92-129.3,250.93-169.02c97.33-41.13,200.72-61.98,307.29-61.98&#xA;&#x9;c106.57,0,209.96,20.85,307.29,61.98c94.01,39.73,178.43,96.59,250.93,169.02c72.5,72.43,129.42,156.78,169.18,250.7&#xA;&#x9;c41.17,97.24,62.04,200.53,62.04,307s-20.87,209.76-62.04,307c-39.76,93.92-96.68,178.27-169.18,250.7&#xA;&#x9;c-72.5,72.43-156.92,129.3-250.93,169.02C1229.6,1767.24,1126.22,1788.09,1019.65,1788.09z M1019.65,228.06&#xA;&#x9;c-425.71,0-772.05,346.02-772.05,771.32s346.34,771.33,772.05,771.33s772.05-346.02,772.05-771.33S1445.36,228.06,1019.65,228.06z"></path>
<path fill="#D8232F" d="M467.38,1066.79c0,0,54.57-2.49,108.91-69.96H467.38V1066.79z"></path>
<path fill="#D8232F" d="M1434.63,637.51c-169.36-200.15-411.47-187.47-411.47-187.47v136.15H884.29V469.66&#xA;&#x9;c-51.62,12.38-136.75,54.94-136.75,54.94v61.28h-82.42l-56.15,47.09l2.08,91.56l-65.17,0.22c-36.83,46.19-56.3,134.79-56.3,134.79&#xA;&#x9;l121.36,1.06v94.94c12.23-17.51,52.23-35.77,52.23-35.77l25.96,17.36l24.45-29.74c17.21-26.57,33.36-29.74,33.36-29.74v-17.81&#xA;&#x9;h137.74v82.42l91.47,48c30.34,14.26,63.4-13.36,63.4-13.36c33.28-24.68,67.47-14.94,67.47-14.94l91.25-103.25&#xA;&#x9;c4.75-4.3,16.08-17.21,16.08-17.21c18.79-36.91,60-36,60-36l105.06,98.04c49.36-7.25,70.87,21.74,70.87,21.74&#xA;&#x9;c10.64,32.38,26.34,56.38,26.34,56.38c46.19,84.23,99.62,83.32,99.62,83.32C1594.63,771.54,1434.63,637.51,1434.63,637.51z&#xA;&#x9; M746.82,859.2l-135.4,0.79l-0.38-134.86l136.04-1.12L746.82,859.2z M884.62,723.33l-137.54,0.25l0.58-137.17l136.59,0.19&#xA;&#x9;L884.62,723.33z M1020.74,858.79H884.89V724.15h135.85V858.79z M1327.76,668.9h-65.51v65.21h-28.68V668.9h-64v-28.38h64v-64h28.68&#xA;&#x9;v64h65.51V668.9z"></path>
<path fill="#D8232F" d="M1022.53,1573.62c-151.45,0-293.84-58.98-400.94-166.07c-107.09-107.09-166.07-249.48-166.07-400.94&#xA;&#x9;S514.5,712.76,621.6,605.67C728.69,498.58,871.08,439.6,1022.53,439.6s293.84,58.98,400.94,166.07&#xA;&#x9;c107.09,107.09,166.07,249.48,166.07,400.94s-58.98,293.84-166.07,400.94C1316.38,1514.64,1173.99,1573.62,1022.53,1573.62z&#xA;&#x9; M1022.53,459.86c-301.48,0-546.75,245.27-546.75,546.75c0,301.48,245.27,546.75,546.75,546.75s546.75-245.27,546.75-546.75&#xA;&#x9;C1569.28,705.13,1324.01,459.86,1022.53,459.86z"></path>
<g>
&#x9;<path fill="#0D1B33" d="M446.79,834.66l-5.73,20.1L313.16,818.3l5.73-20.1l54.82,15.63l6.51-22.84l-54.82-15.63l5.83-20.47&#xA;&#x9;&#x9;l127.91,36.47l-5.83,20.47l-54.82-15.63l-6.51,22.84L446.79,834.66z"></path>
&#x9;<path fill="#0D1B33" d="M419.91,648.55l82.48,49.77l-9.72,16.1L378.8,645.71l13.55-22.45l79.25,22.75l-68.16-41.13l9.62-15.94&#xA;&#x9;&#x9;l113.87,68.71l-11.09,18.38L419.91,648.55z"></path>
&#x9;<path fill="#0D1B33" d="M562.18,534.78l3.85,13.22l28.48,29.29l-14.98,14.57l-92.72-95.35l14.98-14.57l40.4,41.55l-20.79-60.62&#xA;&#x9;&#x9;l14.98-14.57l20.49,62.77l72.24,32.58l-15.39,14.97L562.18,534.78z"></path>
&#x9;<path fill="#0D1B33" d="M789.37,389.8l-1.87,13.64l14.09,38.34l-19.62,7.21L736.1,324.15l19.62-7.21l19.98,54.4l5.7-63.83l19.62-7.21&#xA;&#x9;&#x9;l-6.84,65.67l52.71,59.17l-20.15,7.4L789.37,389.8z"></path>
&#x9;<path fill="#0D1B33" d="M967.57,403.25c-1.5-3.28-2.48-5.27-3.65-16.04l-2.25-20.78c-1.33-12.28-5.98-16.36-15.42-15.34l-7.18,0.78&#xA;&#x9;&#x9;l5.84,53.83l-20.78,2.25l-14.34-132.22l31.36-3.4c21.53-2.34,31.88,6.67,34.09,27.07l1.13,10.39c1.48,13.6-1.91,22.95-10.69,28.3&#xA;&#x9;&#x9;c10.86,3.22,15.35,12.86,16.84,26.65l2.21,20.4c0.7,6.42,1.4,11.12,4.01,15.81L967.57,403.25z M932.61,292.37l4.41,40.61l8.12-0.88&#xA;&#x9;&#x9;c7.74-0.84,12.1-4.75,10.95-15.33l-1.41-13.03c-1.02-9.44-4.69-13.25-12.05-12.45L932.61,292.37z"></path>
&#x9;<path fill="#0D1B33" d="M1081.19,301.82c2.73-21.1,15.41-31.73,35.76-29.09s29.91,16.13,27.18,37.24l-8.88,68.59&#xA;&#x9;&#x9;c-2.73,21.1-15.41,31.73-35.76,29.09s-29.91-16.13-27.18-37.24L1081.19,301.82z M1092.87,374.41c-1.22,9.42,2.46,13.54,9.06,14.39&#xA;&#x9;&#x9;c6.59,0.85,11.2-2.19,12.42-11.61l9.22-71.23c1.22-9.42-2.46-13.54-9.06-14.39c-6.6-0.85-11.2,2.19-12.42,11.61L1092.87,374.41z"></path>
&#x9;<path fill="#0D1B33" d="M1274.58,455.26l-19.66-7.64l5.38-23.8l-23.91-9.29l-12.11,21.18l-17.89-6.95l68.03-116.25l28.51,11.08&#xA;&#x9;&#x9;L1274.58,455.26z M1245.41,398.66l18.77,7.3l14.99-66.34L1245.41,398.66z"></path>
&#x9;<path fill="#0D1B33" d="M1415.22,381.16l52.98,36.96l-10.87,15.58l-17.92-12.5l-65.23,93.49l-17.14-11.96l65.23-93.49l-17.92-12.5&#xA;&#x9;&#x9;L1415.22,381.16z"></path>
&#x9;<path fill="#0D1B33" d="M1547.91,489.99l14.31,15.23l-96.93,91.07l-14.31-15.23L1547.91,489.99z"></path>
&#x9;<path fill="#0D1B33" d="M1595.17,641.77l14.78,24.59l-16.29,9.79l-14.78-24.59l-33.39,20.06l18.6,30.94l-16.29,9.79l-29.36-48.86&#xA;&#x9;&#x9;l114-68.51l29.36,48.86l-16.29,9.79l-18.6-30.94L1595.17,641.77z"></path>
&#x9;<path fill="#0D1B33" d="M1678.9,778.12l-92.43,27.12l-5.29-18.05l127.62-37.44l7.38,25.16l-70.35,43.01l76.39-22.41l5.24,17.87&#xA;&#x9;&#x9;l-127.62,37.44l-6.04-20.6L1678.9,778.12z"></path>
</g>
<g>
&#x9;<path fill="#0D1B33" d="M704.99,1515.2c17.4,10.51,20.06,26.33,9.05,44.54l-2.16,3.58l-16.91-10.22l2.85-4.72&#xA;&#x9;&#x9;c4.91-8.13,3.53-13.19-2.17-16.63c-5.69-3.44-10.81-2.31-15.72,5.82c-14.15,23.42,18.16,48.93-1.49,81.46&#xA;&#x9;&#x9;c-11,18.21-26.4,23.12-43.96,12.51s-20.38-26.52-9.38-44.74l4.23-6.99l16.91,10.22l-4.91,8.13c-4.91,8.13-3.1,13.22,2.59,16.66&#xA;&#x9;&#x9;c5.69,3.44,11.04,2.67,15.95-5.46c14.15-23.42-18.16-48.93,1.49-81.46C672.36,1509.69,687.59,1504.69,704.99,1515.2z"></path>
&#x9;<path fill="#0D1B33" d="M819.43,1659.42l-5.91,16.65c-7.12,20.05-21.22,27.95-40.55,21.08s-25.29-21.89-18.17-41.94l23.15-65.17&#xA;&#x9;&#x9;c7.12-20.05,21.22-27.95,40.55-21.08c19.34,6.87,25.29,21.89,18.17,41.94l-4.32,12.17l-18.62-6.61l4.77-13.43&#xA;&#x9;&#x9;c3.18-8.95,0.45-13.75-5.82-15.98c-6.27-2.23-11.41-0.22-14.59,8.73l-24.04,67.67c-3.18,8.95-0.39,13.57,5.88,15.8&#xA;&#x9;&#x9;c6.27,2.23,11.35,0.4,14.53-8.55l6.36-17.9L819.43,1659.42z"></path>
&#x9;<path fill="#0D1B33" d="M915.22,1730.91l-20.73-2.68l17.07-131.9l20.73,2.68l-7.31,56.53l23.55,3.05l7.31-56.53l21.1,2.73&#xA;&#x9;&#x9;l-17.07,131.9l-21.1-2.73l7.31-56.53l-23.55-3.05L915.22,1730.91z"></path>
&#x9;<path fill="#0D1B33" d="M1097.35,1663.73l1.7,71.26l-28.45,3.74l-32.02-129.94l20.16-2.65l24.78,102.53l-3.68-105.3l19.97-2.62&#xA;&#x9;&#x9;l24.12,103.38l-3.02-106.15l18.08-2.38l2.63,133.8l-27.5,3.61L1097.35,1663.73z"></path>
&#x9;<path fill="#0D1B33" d="M1249.3,1652.81l-56.99-73.19l20.35-7.96l36.95,50.63l-7.22-62.26l18.58-7.27l7.8,92.43l16.06,41.05&#xA;&#x9;&#x9;l-19.46,7.62L1249.3,1652.81z"></path>
&#x9;<path fill="#0D1B33" d="M1363.08,1491.26l10.39,15.45l20.27,101.31l32.95-22.16l10.6,15.77l-50.77,34.14l-10.39-15.45L1355.87,1519&#xA;&#x9;&#x9;l-31.38,21.1l-10.6-15.77L1363.08,1491.26z"></path>
</g>
<g>
&#x9;<path fill="#0D1B33" d="M854.34,1250.7c16.15,0,19.76-7.79,22.99-16.72h14.06v133h-20.9v-101.46h-16.15V1250.7z"></path>
&#x9;<path fill="#0D1B33" d="M997.22,1333.92c0,22.42-10.26,34.58-31.92,34.58c-20.52,0-31.16-12.16-31.16-33.44v-3.42h19.76v4.75&#xA;&#x9;&#x9;c0,9.5,4.18,13.11,10.83,13.11c7.41,0,11.59-3.61,11.59-16.34v-24.32c-3.61,7.6-10.07,11.78-19.38,11.78&#xA;&#x9;&#x9;c-15.39,0-23.18-10.83-23.18-30.4v-24.32c0-21.28,11.21-33.44,31.73-33.44c20.52,0,31.73,12.16,31.73,33.44V1333.92z&#xA;&#x9;&#x9; M976.32,1288.51v-23.94c0-9.5-4.18-12.92-10.83-12.92c-6.65,0-10.83,3.42-10.83,12.92v23.94c0,9.5,4.18,13.11,10.83,13.11&#xA;&#x9;&#x9;C972.14,1301.62,976.32,1298.01,976.32,1288.51z"></path>
&#x9;<path fill="#0D1B33" d="M1091.65,1333.92c0,22.42-10.26,34.58-31.92,34.58c-20.52,0-31.16-12.16-31.16-33.44v-3.42h19.76v4.75&#xA;&#x9;&#x9;c0,9.5,4.18,13.11,10.83,13.11c7.41,0,11.59-3.61,11.59-16.34v-24.32c-3.61,7.6-10.07,11.78-19.38,11.78&#xA;&#x9;&#x9;c-15.39,0-23.18-10.83-23.18-30.4v-24.32c0-21.28,11.21-33.44,31.73-33.44c20.52,0,31.73,12.16,31.73,33.44V1333.92z&#xA;&#x9;&#x9; M1070.75,1288.51v-23.94c0-9.5-4.18-12.92-10.83-12.92c-6.65,0-10.83,3.42-10.83,12.92v23.94c0,9.5,4.18,13.11,10.83,13.11&#xA;&#x9;&#x9;C1066.57,1301.62,1070.75,1298.01,1070.75,1288.51z"></path>
&#x9;<path fill="#0D1B33" d="M1143.52,1324.04v12.35c0,9.5,4.18,12.92,10.83,12.92c6.65,0,10.83-3.42,10.83-12.92v-29.26&#xA;&#x9;&#x9;c0-9.5-4.18-13.11-10.83-13.11c-6.65,0-10.83,3.61-10.83,13.11v3.99h-19.76l3.8-77.14h55.1v19h-36.29l-1.71,31.73&#xA;&#x9;&#x9;c3.8-6.27,9.88-9.69,18.24-9.69c15.39,0,23.18,10.83,23.18,30.4v29.64c0,21.28-10.64,33.44-31.16,33.44s-31.16-12.16-31.16-33.44&#xA;&#x9;&#x9;v-11.02H1143.52z"></path>
</g>
</svg>